<mxfile host="app.diagrams.net" modified="2022-01-19T04:06:29.394Z" agent="5.0 (Windows NT 10.0; Win64; x64) AppleWebKit/537.36 (KHTML, like Gecko) Chrome/96.0.4664.110 Safari/537.36" etag="t3Zdd-xdu7s4xIGrRAz5" version="16.2.4" type="github" pages="2">
  <diagram name="Item" id="c7558073-3199-34d8-9f00-42111426c3f3">
    <mxGraphModel dx="1422" dy="705" grid="1" gridSize="10" guides="1" tooltips="1" connect="1" arrows="1" fold="1" page="1" pageScale="1" pageWidth="826" pageHeight="1169" background="none" math="0" shadow="0">
      <root>
        <mxCell id="0" />
        <mxCell id="1" parent="0" />
        <mxCell id="l7lYQYn7nZP9tcfI6Eyq-96" value="" style="shape=image;html=1;verticalAlign=top;verticalLabelPosition=bottom;labelBackgroundColor=#ffffff;imageAspect=0;aspect=fixed;image=https://cdn0.iconfinder.com/data/icons/font-awesome-brands-vol-1/512/jenkins-128.png;imageBackground=default;" vertex="1" parent="1">
          <mxGeometry x="600" y="210" width="30" height="30" as="geometry" />
        </mxCell>
        <mxCell id="l7lYQYn7nZP9tcfI6Eyq-98" value="" style="sketch=0;outlineConnect=0;fontColor=#232F3E;gradientColor=none;fillColor=#1A1A1A;strokeColor=none;dashed=0;verticalLabelPosition=bottom;verticalAlign=top;align=center;html=1;fontSize=12;fontStyle=0;aspect=fixed;pointerEvents=1;shape=mxgraph.aws4.registry;" vertex="1" parent="1">
          <mxGeometry x="540" y="210" width="30" height="30" as="geometry" />
        </mxCell>
        <mxCell id="l7lYQYn7nZP9tcfI6Eyq-99" value="" style="aspect=fixed;perimeter=ellipsePerimeter;html=1;align=center;shadow=0;dashed=0;fontColor=#4277BB;labelBackgroundColor=#ffffff;fontSize=12;spacingTop=3;image;image=img/lib/ibm/data/file_repository.svg;fillColor=#1A1A1A;imageBackground=default;" vertex="1" parent="1">
          <mxGeometry x="650" y="210" width="30" height="30" as="geometry" />
        </mxCell>
        <mxCell id="l7lYQYn7nZP9tcfI6Eyq-100" value="" style="shape=image;html=1;verticalAlign=top;verticalLabelPosition=bottom;labelBackgroundColor=#ffffff;imageAspect=0;aspect=fixed;image=https://cdn3.iconfinder.com/data/icons/social-media-2034/500/github-128.png;fillColor=#1A1A1A;" vertex="1" parent="1">
          <mxGeometry x="480" y="210" width="30" height="30" as="geometry" />
        </mxCell>
        <mxCell id="l7lYQYn7nZP9tcfI6Eyq-103" value="" style="fillColor=#999999;verticalLabelPosition=bottom;sketch=0;html=1;strokeColor=#ffffff;verticalAlign=top;align=center;points=[[0.145,0.145,0],[0.5,0,0],[0.855,0.145,0],[1,0.5,0],[0.855,0.855,0],[0.5,1,0],[0.145,0.855,0],[0,0.5,0]];pointerEvents=1;shape=mxgraph.cisco_safe.compositeIcon;bgIcon=ellipse;resIcon=mxgraph.cisco_safe.capability.storage;" vertex="1" parent="1">
          <mxGeometry x="437" y="209" width="30" height="30" as="geometry" />
        </mxCell>
      </root>
    </mxGraphModel>
  </diagram>
  <diagram id="Wa-xjeoQv7r0eMnlsIeX" name="BuildWorkflow">
    <mxGraphModel dx="1422" dy="705" grid="1" gridSize="10" guides="1" tooltips="1" connect="1" arrows="1" fold="1" page="1" pageScale="1" pageWidth="850" pageHeight="1100" math="0" shadow="0">
      <root>
        <mxCell id="NobhFElz-Mi9_Mbcb6fH-0" />
        <mxCell id="NobhFElz-Mi9_Mbcb6fH-1" parent="NobhFElz-Mi9_Mbcb6fH-0" />
        <mxCell id="qAiQCavxn32aK4oJ68gp-2" value="" style="edgeStyle=orthogonalEdgeStyle;rounded=0;orthogonalLoop=1;jettySize=auto;html=1;" edge="1" parent="NobhFElz-Mi9_Mbcb6fH-1" source="NobhFElz-Mi9_Mbcb6fH-2" target="qAiQCavxn32aK4oJ68gp-1">
          <mxGeometry relative="1" as="geometry" />
        </mxCell>
        <mxCell id="NobhFElz-Mi9_Mbcb6fH-2" value="Checkin New Test Scripts" style="rounded=1;whiteSpace=wrap;html=1;fillColor=#f0a30a;strokeColor=none;fontColor=#000000;" vertex="1" parent="NobhFElz-Mi9_Mbcb6fH-1">
          <mxGeometry x="200" y="240" width="130" height="80" as="geometry" />
        </mxCell>
        <mxCell id="qAiQCavxn32aK4oJ68gp-4" value="" style="edgeStyle=orthogonalEdgeStyle;rounded=0;orthogonalLoop=1;jettySize=auto;html=1;" edge="1" parent="NobhFElz-Mi9_Mbcb6fH-1" source="qAiQCavxn32aK4oJ68gp-1" target="qAiQCavxn32aK4oJ68gp-3">
          <mxGeometry relative="1" as="geometry" />
        </mxCell>
        <mxCell id="qAiQCavxn32aK4oJ68gp-1" value="Pull Script from Git" style="rounded=1;whiteSpace=wrap;html=1;fillColor=#647687;strokeColor=none;fontColor=#ffffff;" vertex="1" parent="NobhFElz-Mi9_Mbcb6fH-1">
          <mxGeometry x="200" y="360" width="130" height="80" as="geometry" />
        </mxCell>
        <mxCell id="qAiQCavxn32aK4oJ68gp-6" value="" style="edgeStyle=orthogonalEdgeStyle;rounded=0;orthogonalLoop=1;jettySize=auto;html=1;" edge="1" parent="NobhFElz-Mi9_Mbcb6fH-1" source="qAiQCavxn32aK4oJ68gp-3" target="qAiQCavxn32aK4oJ68gp-5">
          <mxGeometry relative="1" as="geometry" />
        </mxCell>
        <mxCell id="qAiQCavxn32aK4oJ68gp-3" value="Build FSAT Container" style="rounded=1;whiteSpace=wrap;html=1;fillColor=#647687;strokeColor=none;fontColor=#ffffff;" vertex="1" parent="NobhFElz-Mi9_Mbcb6fH-1">
          <mxGeometry x="200" y="480" width="130" height="80" as="geometry" />
        </mxCell>
        <mxCell id="qAiQCavxn32aK4oJ68gp-8" value="" style="edgeStyle=orthogonalEdgeStyle;rounded=0;orthogonalLoop=1;jettySize=auto;html=1;" edge="1" parent="NobhFElz-Mi9_Mbcb6fH-1" source="qAiQCavxn32aK4oJ68gp-5" target="qAiQCavxn32aK4oJ68gp-7">
          <mxGeometry relative="1" as="geometry" />
        </mxCell>
        <mxCell id="qAiQCavxn32aK4oJ68gp-5" value="Post Container To Docker Registry" style="rounded=1;whiteSpace=wrap;html=1;fillColor=#fa6800;strokeColor=none;fontColor=#000000;" vertex="1" parent="NobhFElz-Mi9_Mbcb6fH-1">
          <mxGeometry x="200" y="600" width="130" height="80" as="geometry" />
        </mxCell>
        <mxCell id="qAiQCavxn32aK4oJ68gp-7" value="Post Code Package to Repository" style="rounded=1;whiteSpace=wrap;html=1;fillColor=#60a917;strokeColor=none;fontColor=#ffffff;" vertex="1" parent="NobhFElz-Mi9_Mbcb6fH-1">
          <mxGeometry x="200" y="720" width="130" height="80" as="geometry" />
        </mxCell>
        <mxCell id="N1nRurtH5acbaEtOOtBP-1" value="" style="group" vertex="1" connectable="0" parent="NobhFElz-Mi9_Mbcb6fH-1">
          <mxGeometry x="640" y="220" width="160" height="40" as="geometry" />
        </mxCell>
        <mxCell id="-VX0kDasnMqtzU-3nP0C-1" value="&amp;nbsp; &amp;nbsp; &amp;nbsp; &amp;nbsp; &amp;nbsp; File Repository" style="rounded=1;whiteSpace=wrap;html=1;strokeColor=none;fillColor=#60a917;fontColor=#ffffff;fontFamily=Verdana;" vertex="1" parent="N1nRurtH5acbaEtOOtBP-1">
          <mxGeometry width="160" height="40" as="geometry" />
        </mxCell>
        <mxCell id="qAiQCavxn32aK4oJ68gp-0" value="" style="fillColor=#60a917;verticalLabelPosition=bottom;sketch=0;html=1;strokeColor=default;verticalAlign=top;align=center;points=[[0.145,0.145,0],[0.5,0,0],[0.855,0.145,0],[1,0.5,0],[0.855,0.855,0],[0.5,1,0],[0.145,0.855,0],[0,0.5,0]];pointerEvents=1;shape=mxgraph.cisco_safe.compositeIcon;bgIcon=ellipse;resIcon=mxgraph.cisco_safe.capability.storage;fontColor=#ffffff;" vertex="1" parent="N1nRurtH5acbaEtOOtBP-1">
          <mxGeometry x="10" y="5" width="30" height="30" as="geometry" />
        </mxCell>
        <mxCell id="N1nRurtH5acbaEtOOtBP-2" value="" style="group" vertex="1" connectable="0" parent="NobhFElz-Mi9_Mbcb6fH-1">
          <mxGeometry x="640" y="160" width="160" height="40" as="geometry" />
        </mxCell>
        <mxCell id="K7RzpKvHih6vfwfIuiqB-2" value="&amp;nbsp; &amp;nbsp; &amp;nbsp; &amp;nbsp; &amp;nbsp; Docker Registry" style="rounded=1;whiteSpace=wrap;html=1;strokeColor=none;fillColor=#fa6800;fontColor=#000000;fontFamily=Verdana;" vertex="1" parent="N1nRurtH5acbaEtOOtBP-2">
          <mxGeometry width="160" height="40" as="geometry" />
        </mxCell>
        <mxCell id="-VX0kDasnMqtzU-3nP0C-0" value="" style="sketch=0;outlineConnect=0;fontColor=#232F3E;gradientColor=none;fillColor=#1A1A1A;strokeColor=none;dashed=0;verticalLabelPosition=bottom;verticalAlign=top;align=center;html=1;fontSize=12;fontStyle=0;aspect=fixed;pointerEvents=1;shape=mxgraph.aws4.registry;" vertex="1" parent="N1nRurtH5acbaEtOOtBP-2">
          <mxGeometry x="10" y="5" width="30" height="30" as="geometry" />
        </mxCell>
        <mxCell id="N1nRurtH5acbaEtOOtBP-3" value="" style="group" vertex="1" connectable="0" parent="NobhFElz-Mi9_Mbcb6fH-1">
          <mxGeometry x="640" y="100" width="160" height="40" as="geometry" />
        </mxCell>
        <mxCell id="m9r3bZGPb97PLydksaYs-6" value="&amp;nbsp; &amp;nbsp; &amp;nbsp;Jenkins" style="rounded=1;whiteSpace=wrap;html=1;strokeColor=none;fillColor=#647687;fontColor=#ffffff;fontFamily=Verdana;" vertex="1" parent="N1nRurtH5acbaEtOOtBP-3">
          <mxGeometry width="160" height="40" as="geometry" />
        </mxCell>
        <mxCell id="K7RzpKvHih6vfwfIuiqB-1" value="" style="shape=image;verticalLabelPosition=bottom;labelBackgroundColor=default;verticalAlign=middle;aspect=fixed;imageAspect=0;image=https://dpswan150.drm.lab.emc.com/static/30f864ee/images/jenkins-header-logo-v2.svg;" vertex="1" parent="N1nRurtH5acbaEtOOtBP-3">
          <mxGeometry x="14.100000000000023" y="5" width="21.8" height="30" as="geometry" />
        </mxCell>
        <mxCell id="N1nRurtH5acbaEtOOtBP-4" value="" style="group" vertex="1" connectable="0" parent="NobhFElz-Mi9_Mbcb6fH-1">
          <mxGeometry x="640" y="40" width="160" height="40" as="geometry" />
        </mxCell>
        <mxCell id="qAiQCavxn32aK4oJ68gp-9" value="&amp;nbsp; &amp;nbsp; GitHub" style="rounded=1;whiteSpace=wrap;html=1;strokeColor=none;fillColor=#f0a30a;fontColor=#000000;fontFamily=Verdana;" vertex="1" parent="N1nRurtH5acbaEtOOtBP-4">
          <mxGeometry width="160" height="40" as="geometry" />
        </mxCell>
        <mxCell id="m9r3bZGPb97PLydksaYs-0" value="" style="shape=image;html=1;verticalAlign=top;verticalLabelPosition=bottom;labelBackgroundColor=#ffffff;imageAspect=0;aspect=fixed;image=https://cdn3.iconfinder.com/data/icons/social-media-2034/500/github-128.png;fillColor=#1A1A1A;imageBackground=none;container=0;" vertex="1" parent="N1nRurtH5acbaEtOOtBP-4">
          <mxGeometry x="10" y="5" width="30" height="30" as="geometry" />
        </mxCell>
      </root>
    </mxGraphModel>
  </diagram>
</mxfile>
